<?xml version="1.0" encoding="UTF-8" standalone="no"?>
<!-- Created with Inkscape (http://www.inkscape.org/) -->

<svg
   xmlns:dc="http://purl.org/dc/elements/1.1/"
   xmlns:cc="http://creativecommons.org/ns#"
   xmlns:rdf="http://www.w3.org/1999/02/22-rdf-syntax-ns#"
   xmlns:svg="http://www.w3.org/2000/svg"
   xmlns="http://www.w3.org/2000/svg"
   xmlns:sodipodi="http://sodipodi.sourceforge.net/DTD/sodipodi-0.dtd"
   xmlns:inkscape="http://www.inkscape.org/namespaces/inkscape"
   width="14.227241mm"
   height="11.184617mm"
   viewBox="0 0 14.227241 11.184617"
   version="1.1"
   id="svg4905"
   inkscape:version="0.92.1 r15371"
   sodipodi:docname="password.svg">
  <defs
     id="defs4899" />
  <sodipodi:namedview
     id="base"
     pagecolor="#ffffff"
     bordercolor="#666666"
     borderopacity="1.0"
     inkscape:pageopacity="0.0"
     inkscape:pageshadow="2"
     inkscape:zoom="0.35"
     inkscape:cx="-124.54244"
     inkscape:cy="18.279122"
     inkscape:document-units="mm"
     inkscape:current-layer="layer1"
     showgrid="false"
     fit-margin-top="0"
     fit-margin-left="0"
     fit-margin-right="0"
     fit-margin-bottom="0"
     inkscape:window-width="1920"
     inkscape:window-height="1021"
     inkscape:window-x="0"
     inkscape:window-y="0"
     inkscape:window-maximized="1" />
  <metadata
     id="metadata4902">
    <rdf:RDF>
      <cc:Work
         rdf:about="">
        <dc:format>image/svg+xml</dc:format>
        <dc:type
           rdf:resource="http://purl.org/dc/dcmitype/StillImage" />
        <dc:title></dc:title>
      </cc:Work>
    </rdf:RDF>
  </metadata>
  <g
     inkscape:label="Layer 1"
     inkscape:groupmode="layer"
     id="layer1"
     transform="translate(1.8219556,-142.48507)">
    <g
       transform="matrix(0.26458333,0,0,0.26458333,-122.73653,-499.25421)"
       style="display:inline;opacity:0.95999995"
       id="g16339">
      <path
         inkscape:connector-curvature="0"
         id="path831"
         style="fill:#ffffff;fill-rule:evenodd;stroke-width:3.14437509"
         d="m 509.3444,2426.3729 h -47.10324 c -2.1756,0 -3.89882,1.7548 -3.89882,3.9312 v 31.7265 c 0,2.1754 1.72322,3.899 3.89902,3.899 h 47.10324" />
      <path
         inkscape:connector-curvature="0"
         id="path829"
         style="fill:#01b757;fill-opacity:1;stroke-width:1.00619996"
         d="m 495.26867,2436.2789 c 0.52423,0 1.0062,0.088 1.44289,0.2626 0.4548,0.1751 0.81402,0.4548 1.07664,0.8402 0.26261,0.3673 0.39342,0.8402 0.39342,1.4167 0,0.4377 -0.0694,1.0324 -0.2103,1.785 -0.13986,0.7356 -0.23545,1.295 -0.28878,1.6804 0.56046,-0.3854 1.05953,-0.7436 1.49622,-1.0766 0.45581,-0.3502 0.8925,-0.6209 1.3131,-0.813 0.41958,-0.2103 0.83112,-0.315 1.2336,-0.315 0.82206,0 1.51332,0.315 2.07277,0.9448 0.56045,0.6299 0.84018,1.3644 0.84018,2.2046 0,0.5947 -0.22741,1.0938 -0.68221,1.4962 -0.4548,0.4025 -1.19033,0.8131 -2.20458,1.2336 -1.01526,0.4025 -1.5576,0.6209 -1.62803,0.6561 0.0704,0.035 0.61277,0.2626 1.62803,0.6822 1.03236,0.4196 1.76688,0.8221 2.20458,1.2074 0.4548,0.3673 0.68221,0.8483 0.68221,1.4439 0,0.8573 -0.27973,1.6099 -0.84018,2.2569 -0.55945,0.648 -1.25071,0.971 -2.07277,0.971 -0.56046,0 -1.19939,-0.2445 -1.91681,-0.7345 -0.71743,-0.49 -1.42579,-0.98 -2.12611,-1.4701 0.0875,0.5605 0.1932,1.1551 0.31595,1.785 0.12175,0.6299 0.18313,1.1632 0.18313,1.6009 0,0.8754 -0.27972,1.5314 -0.84018,1.9681 -0.54234,0.4206 -1.2336,0.6309 -2.07277,0.6309 -0.82307,0 -1.51433,-0.2103 -2.07378,-0.6309 -0.54234,-0.4367 -0.81401,-1.0927 -0.81401,-1.9681 0,-0.2797 0.0704,-0.805 0.21029,-1.5747 0.13986,-0.7698 0.2274,-1.3735 0.26262,-1.8112 -0.92772,0.647 -1.54049,1.0847 -1.83732,1.3121 -0.29784,0.2103 -0.65604,0.4116 -1.07663,0.6037 -0.40248,0.1932 -0.78685,0.2888 -1.15412,0.2888 -0.84017,0 -1.52238,-0.3149 -2.04761,-0.9448 -0.50713,-0.6299 -0.7617,-1.3906 -0.7617,-2.2831 0,-0.6299 0.21936,-1.1289 0.65605,-1.4962 0.43769,-0.3673 1.14706,-0.7436 2.1261,-1.1289 0.98004,-0.4025 1.54049,-0.639 1.68035,-0.7084 -0.13986,-0.07 -0.70031,-0.2978 -1.68035,-0.6822 -0.96193,-0.4025 -1.67029,-0.7969 -2.1261,-1.1813 -0.43669,-0.4025 -0.65605,-0.9106 -0.65605,-1.5224 0,-0.8573 0.25457,-1.5928 0.7617,-2.2046 0.52523,-0.6298 1.20744,-0.9448 2.04761,-0.9448 0.52423,0 1.0052,0.1399 1.4429,0.4196 0.4548,0.2797 1.33019,0.8744 2.62517,1.785 -0.0352,-0.3854 -0.12276,-0.9891 -0.26262,-1.8112 -0.13986,-0.823 -0.21029,-1.3734 -0.21029,-1.6542 0,-0.8743 0.27167,-1.5133 0.81401,-1.9158 0.55945,-0.4024 1.25071,-0.6037 2.07378,-0.6037 z m -20.9199,0 c 0.52523,0 1.0062,0.088 1.44389,0.2626 0.45481,0.1751 0.81402,0.4548 1.07664,0.8402 0.26262,0.3673 0.39342,0.8402 0.39342,1.4167 0,0.4377 -0.0704,1.0324 -0.21029,1.785 -0.13987,0.7356 -0.23646,1.295 -0.28878,1.6804 0.56045,-0.3854 1.05852,-0.7436 1.49622,-1.0766 0.4548,-0.3502 0.8925,-0.6209 1.31208,-0.813 0.42059,-0.2103 0.83213,-0.315 1.2336,-0.315 0.82307,0 1.51433,0.315 2.07378,0.9448 0.56045,0.6299 0.84018,1.3644 0.84018,2.2046 0,0.5947 -0.2274,1.0938 -0.68221,1.4962 -0.4548,0.4025 -1.19033,0.8131 -2.20458,1.2336 -1.01526,0.4025 -1.5576,0.6209 -1.62803,0.6561 0.0704,0.035 0.61277,0.2626 1.62803,0.6822 1.03236,0.4196 1.76689,0.8221 2.20458,1.2074 0.45481,0.3673 0.68221,0.8483 0.68221,1.4439 0,0.8573 -0.27973,1.6099 -0.84018,2.2569 -0.55945,0.648 -1.25071,0.971 -2.07378,0.971 -0.55945,0 -1.19838,-0.2445 -1.9158,-0.7345 -0.71742,-0.49 -1.42579,-0.98 -2.1261,-1.4701 0.0875,0.5605 0.19319,1.1551 0.31494,1.785 0.12275,0.6299 0.18413,1.1632 0.18413,1.6009 0,0.8754 -0.27972,1.5314 -0.84017,1.9681 -0.54235,0.4206 -1.23361,0.6309 -2.07378,0.6309 -0.82207,0 -1.51333,-0.2103 -2.07278,-0.6309 -0.54234,-0.4367 -0.81401,-1.0927 -0.81401,-1.9681 0,-0.2797 0.0704,-0.805 0.21029,-1.5747 0.13987,-0.7698 0.22741,-1.3735 0.26262,-1.8112 -0.92771,0.647 -1.54049,1.0847 -1.83732,1.3121 -0.29783,0.2103 -0.65705,0.4116 -1.07663,0.6037 -0.40248,0.1932 -0.78786,0.2888 -1.15512,0.2888 -0.83917,0 -1.52238,-0.3149 -2.04661,-0.9448 -0.50813,-0.6299 -0.76169,-1.3906 -0.76169,-2.2831 0,-0.6299 0.21935,-1.1289 0.65604,-1.4962 0.4377,-0.3673 1.14606,-0.7436 2.1261,-1.1289 0.98004,-0.4025 1.54049,-0.639 1.68035,-0.7084 -0.13986,-0.07 -0.70031,-0.2978 -1.68035,-0.6822 -0.96193,-0.4025 -1.6713,-0.7969 -2.1261,-1.1813 -0.43669,-0.4025 -0.65604,-0.9106 -0.65604,-1.5224 0,-0.8573 0.25356,-1.5928 0.76169,-2.2046 0.52423,-0.6298 1.20744,-0.9448 2.04661,-0.9448 0.52524,0 1.0062,0.1399 1.4439,0.4196 0.4548,0.2797 1.33019,0.8744 2.62517,1.785 -0.0352,-0.3854 -0.12275,-0.9891 -0.26262,-1.8112 -0.13986,-0.823 -0.21029,-1.3734 -0.21029,-1.6542 0,-0.8743 0.27167,-1.5133 0.81401,-1.9158 0.55945,-0.4024 1.25071,-0.6037 2.07278,-0.6037 z" />
      <path
         inkscape:connector-curvature="0"
         id="path832"
         style="fill:none;stroke:#01b757;stroke-width:3.12505579;stroke-linecap:round;stroke-linejoin:round;stroke-opacity:1"
         d="M 509.18744,2466.1812 H 458.5625 v -39.1472 h 50.62494" />
    </g>
  </g>
</svg>
